{
  "accessors": [
    {
      "bufferView": 2,
      "componentType": 5126,
      "count": 65532,
      "max": [
        0.03830000013113022,
        5.018031120300293,
        -1.1384190320968628
      ],
      "min": [
        -0.5725589990615845,
        4.233522891998291,
        -1.8226250410079956
      ],
      "type": "VEC3"
    },
    {
      "bufferView": 2,
      "byteOffset": 786384,
      "componentType": 5126,
      "count": 65532,
      "max": [
        0.9999945759773254,
        0.9868922233581543,
        0.9999842643737793
      ],
      "min": [
        -0.9999873042106628,
        -0.9998934864997864,
        -0.9999960064888
      ],
      "type": "VEC3"
    },
    {
      "bufferView": 3,
      "componentType": 5126,
      "count": 65532,
      "max": [
        0.7607843279838562,
        0.7137255072593689,
        0.5921568870544434,
        1.0
      ],
      "min": [
        0.18039216101169586,
        0.14901961386203766,
        0.07058823853731155,
        1.0
      ],
      "type": "VEC4"
    },
    {
      "bufferView": 1,
      "componentType": 5126,
      "count": 65532,
      "max": [
        0.999439001083374,
        0.8049399852752686
      ],
      "min": [
        3.7999998312443495e-05,
        0.00024399999529123306
      ],
      "type": "VEC2"
    },
    {
      "bufferView": 0,
      "componentType": 5125,
      "count": 362364,
      "type": "SCALAR"
    },
    {
      "bufferView": 2,
      "byteOffset": 1572768,
      "componentType": 5126,
      "count": 65532,
      "max": [
        0.035760000348091125,
        5.230255126953125,
        -1.1484359502792358
      ],
      "min": [
        -0.5673549771308899,
        4.320377826690674,
        -1.8286089897155762
      ],
      "type": "VEC3"
    },
    {
      "bufferView": 2,
      "byteOffset": 2359152,
      "componentType": 5126,
      "count": 65532,
      "max": [
        0.999981164932251,
        0.9999975562095642,
        0.9999679327011108
      ],
      "min": [
        -0.9999947547912598,
        -0.9999932050704956,
        -0.9999901056289673
      ],
      "type": "VEC3"
    },
    {
      "bufferView": 3,
      "byteOffset": 1048512,
      "componentType": 5126,
      "count": 65532,
      "max": [
        0.7372549176216125,
        0.6901960968971252,
        0.5607843399047852,
        1.0
      ],
      "min": [
        0.0,
        0.0,
        0.0,
        1.0
      ],
      "type": "VEC4"
    },
    {
      "bufferView": 1,
      "byteOffset": 524256,
      "componentType": 5126,
      "count": 65532,
      "max": [
        0.9999290108680725,
        0.9589080214500427
      ],
      "min": [
        0.00021499999274965376,
        0.003926999866962433
      ],
      "type": "VEC2"
    },
    {
      "bufferView": 0,
      "byteOffset": 1449456,
      "componentType": 5125,
      "count": 337023,
      "type": "SCALAR"
    },
    {
      "bufferView": 2,
      "byteOffset": 3145536,
      "componentType": 5126,
      "count": 17677,
      "max": [
        0.03617100045084953,
        4.904024124145508,
        -1.1384190320968628
      ],
      "min": [
        -0.5756580233573914,
        4.23407506942749,
        -1.5063279867172241
      ],
      "type": "VEC3"
    },
    {
      "bufferView": 2,
      "byteOffset": 3357660,
      "componentType": 5126,
      "count": 17677,
      "max": [
        0.9999856352806091,
        0.9976401925086975,
        0.9999842643737793
      ],
      "min": [
        -0.999985933303833,
        -0.999876856803894,
        -0.9990134239196777
      ],
      "type": "VEC3"
    },
    {
      "bufferView": 3,
      "byteOffset": 2097024,
      "componentType": 5126,
      "count": 17677,
      "max": [
        0.7529411911964417,
        0.7019608020782471,
        0.5490196347236633,
        1.0
      ],
      "min": [
        0.0,
        0.0,
        0.0,
        1.0
      ],
      "type": "VEC4"
    },
    {
      "bufferView": 1,
      "byteOffset": 1048512,
      "componentType": 5126,
      "count": 17677,
      "max": [
        0.9999409914016724,
        0.8817650079727173
      ],
      "min": [
        1.8999999156221747e-05,
        0.0005639999872073531
      ],
      "type": "VEC2"
    },
    {
      "bufferView": 0,
      "byteOffset": 2797548,
      "componentType": 5125,
      "count": 78888,
      "type": "SCALAR"
    }
  ],
  "asset": {
    "extras": {
      "author": "eribertocaria (https://sketchfab.com/eribertocaria)",
      "license": "CC-BY-4.0 (http://creativecommons.org/licenses/by/4.0/)",
      "source": "https://sketchfab.com/3d-models/gigante-monte-prama-be31bb4c0f8c406483d18369b7ea16df",
      "title": "Gigante Mont'e Prama"
    },
    "generator": "Sketchfab-15.16.0",
    "version": "2.0"
  },
  "bufferViews": [
    {
      "buffer": 0,
      "byteLength": 3113100,
      "name": "floatBufferViews",
      "target": 34963
    },
    {
      "buffer": 0,
      "byteLength": 1189928,
      "byteOffset": 3113100,
      "byteStride": 8,
      "name": "floatBufferViews",
      "target": 34962
    },
    {
      "buffer": 0,
      "byteLength": 3569784,
      "byteOffset": 4303028,
      "byteStride": 12,
      "name": "floatBufferViews",
      "target": 34962
    },
    {
      "buffer": 0,
      "byteLength": 2379856,
      "byteOffset": 7872812,
      "byteStride": 16,
      "name": "floatBufferViews",
      "target": 34962
    }
  ],
  "buffers": [
    {
      "byteLength": 10252668,
      "uri": "scene.bin"
    }
  ],
  "images": [
    {
      "uri": "textures/Gigante_Monte_Prama_baseColor.jpeg"
    }
  ],
  "materials": [
    {
      "doubleSided": true,
      "name": "Gigante_Monte_Prama",
      "pbrMetallicRoughness": {
        "baseColorTexture": {
          "index": 0
        },
        "metallicFactor": 0.0
      }
    }
  ],
  "meshes": [
    {
      "name": "Object_0",
      "primitives": [
        {
          "attributes": {
            "COLOR_0": 2,
            "NORMAL": 1,
            "POSITION": 0,
            "TEXCOORD_0": 3
          },
          "indices": 4,
          "material": 0,
          "mode": 4
        }
      ]
    },
    {
      "name": "Object_1",
      "primitives": [
        {
          "attributes": {
            "COLOR_0": 7,
            "NORMAL": 6,
            "POSITION": 5,
            "TEXCOORD_0": 8
          },
          "indices": 9,
          "material": 0,
          "mode": 4
        }
      ]
    },
    {
      "name": "Object_2",
      "primitives": [
        {
          "attributes": {
            "COLOR_0": 12,
            "NORMAL": 11,
            "POSITION": 10,
            "TEXCOORD_0": 13
          },
          "indices": 14,
          "material": 0,
          "mode": 4
        }
      ]
    }
  ],
  "nodes": [
    {
      "children": [
        1
      ],
      "matrix": [
        0.8892857432365417,
        -0.0366295874118806,
        0.4558827877044678,
        0.0,
        0.053267691284418106,
        -0.981708288192749,
        -0.18278771638870261,
        0.0,
        0.4542393386363983,
        0.18683433532714863,
        -0.8710680603981018,
        0.0,
        0.0,
        0.0,
        0.0,
        1.0
      ],
      "name": "Sketchfab_model"
    },
    {
      "children": [
        2,
        3,
        4
      ],
      "name": "Gigante Mont'e Prama.obj.cleaner.materialmerger.gles"
    },
    {
      "mesh": 0,
      "name": "Object_2"
    },
    {
      "mesh": 1,
      "name": "Object_3"
    },
    {
      "mesh": 2,
      "name": "Object_4"
    }
  ],
  "samplers": [
    {
      "magFilter": 9729,
      "minFilter": 9987,
      "wrapS": 10497,
      "wrapT": 10497
    }
  ],
  "scene": 0,
  "scenes": [
    {
      "name": "Sketchfab_Scene",
      "nodes": [
        0
      ]
    }
  ],
  "textures": [
    {
      "sampler": 0,
      "source": 0
    }
  ]
}
