<svg width="512" height="512" viewBox="0 0 512 512" fill="none" xmlns="http://www.w3.org/2000/svg">
<rect width="512" height="512" rx="25" fill="#D42E2E"/>
<path d="M177.984 177.168C189.76 177.168 199.403 178.789 206.912 182.032C214.421 185.275 221.163 189.2 227.136 193.808C229.013 195.344 230.72 196.112 232.256 196.112C235.499 196.112 237.632 190.992 238.656 180.752H244.544C244.203 187.408 243.947 195.6 243.776 205.328C243.605 215.056 243.52 227.856 243.52 243.728H237.632C236.437 232.464 234.475 222.907 231.744 215.056C229.013 207.035 223.808 200.208 216.128 194.576C212.203 191.333 207.509 188.859 202.048 187.152C196.757 185.275 191.467 184.336 186.176 184.336C176.619 184.336 168.512 186.981 161.856 192.272C155.371 197.392 150.08 204.219 145.984 212.752C141.888 221.115 138.901 230.501 137.024 240.912C135.317 251.152 134.464 261.477 134.464 271.888C134.464 302.608 138.389 325.051 146.24 339.216C154.261 353.381 165.355 360.464 179.52 360.464C182.933 360.464 185.92 360.123 188.48 359.44C191.04 358.587 193.173 357.563 194.88 356.368C197.099 354.832 198.635 353.04 199.488 350.992C200.341 348.944 200.768 346.384 200.768 343.312V317.968C200.768 309.947 200.085 303.973 198.72 300.048C197.355 295.952 194.795 293.221 191.04 291.856C187.456 290.32 182.08 289.467 174.912 289.296V284.176C178.667 284.347 183.189 284.517 188.48 284.688C193.771 284.688 199.317 284.773 205.12 284.944C210.923 284.944 216.299 284.944 221.248 284.944C228.928 284.944 235.925 284.859 242.24 284.688C248.725 284.517 254.016 284.347 258.112 284.176V289.296C255.04 289.467 252.651 290.064 250.944 291.088C249.408 292.112 248.384 294.16 247.872 297.232C247.36 300.304 247.104 304.997 247.104 311.312V362H241.984C241.813 359.099 241.131 355.941 239.936 352.528C238.741 349.115 236.779 347.408 234.048 347.408C232.853 347.408 231.147 347.749 228.928 348.432C226.709 349.115 223.211 350.651 218.432 353.04C212.117 356.453 205.291 359.44 197.952 362C190.784 364.389 183.445 365.584 175.936 365.584C155.285 365.584 137.963 361.915 123.968 354.576C110.144 347.237 99.7333 336.741 92.736 323.088C85.7387 309.264 82.24 292.624 82.24 273.168C82.24 253.883 86.336 237.072 94.528 222.736C102.72 208.4 113.984 197.221 128.32 189.2C142.827 181.179 159.381 177.168 177.984 177.168ZM270.686 180.752C275.294 180.923 281.438 181.093 289.118 181.264C296.798 181.435 304.478 181.52 312.158 181.52C320.521 181.52 328.542 181.435 336.222 181.264C344.073 181.093 349.619 181.008 352.862 181.008C375.049 181.008 391.603 184.763 402.526 192.272C413.619 199.781 419.166 209.424 419.166 221.2C419.166 227.173 417.203 233.317 413.278 239.632C409.353 245.776 403.294 251.323 395.102 256.272C387.081 261.051 376.755 264.379 364.126 266.256V266.768C380.851 267.792 394.163 270.693 404.062 275.472C414.131 280.08 421.385 285.627 425.822 292.112C430.259 298.597 432.478 305.339 432.478 312.336C432.478 323.429 429.491 332.645 423.518 339.984C417.715 347.323 409.267 352.869 398.174 356.624C387.251 360.208 374.11 362 358.75 362C354.654 362 348.681 361.915 340.83 361.744C332.979 361.403 323.593 361.232 312.67 361.232C304.649 361.232 296.798 361.317 289.118 361.488C281.438 361.488 275.294 361.659 270.686 362V356.88C275.977 356.539 279.902 355.856 282.462 354.832C285.193 353.808 286.985 351.76 287.838 348.688C288.862 345.616 289.374 341.008 289.374 334.864V207.888C289.374 201.573 288.862 196.965 287.838 194.064C286.985 190.992 285.193 188.944 282.462 187.92C279.902 186.725 275.977 186.043 270.686 185.872V180.752ZM350.558 185.872C344.414 185.872 340.403 187.323 338.526 190.224C336.649 193.125 335.71 199.013 335.71 207.888V334.864C335.71 340.837 336.137 345.36 336.99 348.432C338.014 351.504 339.721 353.552 342.11 354.576C344.499 355.6 348.083 356.112 352.862 356.112C363.785 356.112 371.721 352.272 376.67 344.592C381.79 336.741 384.35 325.648 384.35 311.312C384.35 298.171 381.107 288.016 374.622 280.848C368.307 273.68 357.726 270.096 342.878 270.096H322.654C322.654 270.096 322.654 269.413 322.654 268.048C322.654 266.512 322.654 265.744 322.654 265.744H344.67C352.009 265.744 357.641 263.867 361.566 260.112C365.491 256.187 368.222 251.067 369.758 244.752C371.294 238.267 372.062 231.355 372.062 224.016C372.062 211.387 370.355 201.915 366.942 195.6C363.699 189.115 358.238 185.872 350.558 185.872Z" fill="#FDF3F3"/>
</svg>
